<?xml version="1.0" encoding="UTF-8"?><svg id="a" xmlns="http://www.w3.org/2000/svg" viewBox="0 0 277.04 203.93"><defs><style>.b,.c{fill:#fff;}.c{fill-rule:evenodd;}</style></defs><polygon class="c" points="13.52 195.82 0 195.82 0 161.4 5.14 161.4 5.14 191.23 13.52 191.23 13.52 195.82"/><path class="c" d="M31.1,195.82h-5v-.77c-1.16.19-2.34.38-3.51.57-1.43.22-2.61.33-3.54.33-1.81,0-2.72-.92-2.73-2.73v-19.62h5v18.02l4.78-.09v-17.93h5v22.21Z"/><path class="c" d="M48.72,193.1c0,1.81-.92,2.72-2.73,2.73h-8.61c-1.81,0-2.72-.92-2.73-2.73v-4.8h4.82v3.74h4.42v-3.54l-7.72-4.53c-1.01-.6-1.52-1.4-1.52-2.41v-5.23c0-1.81.93-2.72,2.77-2.73h8.52c1.81,0,2.72.92,2.73,2.73v4.48h-4.78v-3.42h-4.42v3.22l7.7,4.49c1.03.58,1.54,1.4,1.54,2.45v5.54Z"/><polygon class="c" points="67.07 195.82 61.71 195.82 57.29 185.62 57.29 195.82 52.25 195.82 52.25 161.4 57.29 161.4 57.29 182.06 61.26 173.61 66.53 173.61 66.53 173.7 61.39 183.77 67.07 195.82"/><polygon class="c" points="97.22 165.95 91.54 165.95 91.54 195.82 86.4 195.82 86.4 165.95 80.73 165.95 80.73 161.4 97.22 161.4 97.22 165.95"/><path class="c" d="M113.94,193.1c0,1.81-.92,2.72-2.73,2.73h-8.92c-1.81,0-2.72-.92-2.73-2.73v-16.76c0-1.81.92-2.72,2.73-2.73h8.92c1.81,0,2.72.92,2.73,2.73v8.19l-1.39,1.39h-8.16v6.22h4.73v-3.69h4.82v4.66h0ZM109.12,182.63v-5.32h-4.73v5.32h4.73Z"/><path class="c" d="M131.96,193.1c0,1.81-.92,2.72-2.73,2.73h-8.92c-1.81,0-2.72-.92-2.73-2.73v-16.76c0-1.81.92-2.72,2.73-2.73h8.92c1.81,0,2.72.92,2.73,2.73v5.29h-4.91v-3.83h-4.51v13.83h4.51v-4.24h4.91v5.7Z"/><path class="c" d="M150.39,195.82h-5.05v-18.02l-4.73.09v17.93h-5.05v-34.43h5.05v13.03c1.17-.17,2.35-.35,3.52-.54,1.49-.25,2.66-.37,3.53-.37,1.82,0,2.73.92,2.73,2.73v19.58Z"/><path class="c" d="M168.83,195.82h-5.05v-18.02l-4.73.11v17.91h-5.05v-22.21h5.05v.83c1.17-.2,2.34-.38,3.5-.56,1.44-.24,2.63-.36,3.55-.36,1.82,0,2.73.91,2.73,2.73v19.58Z"/><path class="c" d="M187.08,193.1c0,1.82-.92,2.73-2.73,2.73h-9.19c-1.81,0-2.72-.92-2.73-2.73v-16.75c0-1.82.92-2.73,2.73-2.73h9.19c1.81,0,2.73.91,2.73,2.73v16.75h0ZM182.17,191.64v-13.83h-4.78v13.83h4.78Z"/><rect class="b" x="190.86" y="161.4" width="4.96" height="34.43"/><path class="c" d="M214.19,193.1c0,1.82-.92,2.73-2.73,2.73h-9.19c-1.81,0-2.72-.92-2.73-2.73v-16.75c0-1.82.92-2.73,2.73-2.73h9.19c1.81,0,2.73.91,2.73,2.73v16.75h0ZM209.28,191.64v-13.83h-4.78v13.83h4.78Z"/><path class="c" d="M232.57,201.21c0,1.81-.92,2.72-2.73,2.73h-8.97c-1.81,0-2.72-.92-2.73-2.73v-3.58h4.87v2.66h4.55v-4.6h-5.18c-1.4,0-2.52-.4-3.35-1.19-.83-.79-1.25-1.89-1.25-3.27v-13.59c0-1.28.36-2.28,1.09-3.01.72-.74,1.71-1.1,2.97-1.1.63,0,2.54.3,5.72.9v-.81h5v27.6h0ZM227.57,191.63v-13.65c-1.69-.18-2.73-.27-3.15-.27-1.09,0-1.63.53-1.63,1.61v10.64c0,1.12.56,1.67,1.67,1.67h3.1Z"/><path class="c" d="M241.36,170.41h-5.05v-5.18h5.05v5.18h0ZM241.32,195.82h-4.96v-22.21h4.96v22.21Z"/><path class="c" d="M259.43,193.1c0,1.81-.92,2.72-2.73,2.73h-8.92c-1.81,0-2.72-.92-2.73-2.73v-16.76c0-1.81.92-2.72,2.73-2.73h8.92c1.81,0,2.72.92,2.73,2.73v8.19l-1.39,1.39h-8.16v6.22h4.73v-3.69h4.82v4.66h0ZM254.6,182.63v-5.32h-4.73v5.32h4.73Z"/><path class="c" d="M277.04,193.1c0,1.81-.92,2.72-2.73,2.73h-8.61c-1.81,0-2.72-.92-2.73-2.73v-4.8h4.82v3.74h4.42v-3.54l-7.72-4.53c-1.01-.6-1.52-1.4-1.52-2.41v-5.23c0-1.81.93-2.72,2.77-2.73h8.52c1.81,0,2.72.92,2.73,2.73v4.48h-4.78v-3.42h-4.42v3.22l7.7,4.49c1.03.58,1.54,1.4,1.54,2.45v5.54Z"/><path class="c" d="M103.09,149.6h-39c-1.56,0-2.83-1.29-2.83-2.88s1.27-2.88,2.83-2.88h19.5c1.56,0,2.83-1.29,2.83-2.88s-1.27-2.88-2.83-2.88h-18.15c-1.56,0-2.83-1.29-2.83-2.88s1.27-2.88,2.83-2.88h8.85c-1.56,0-2.83-1.29-2.83-2.88s1.27-2.88,2.83-2.88h-4.35c-1.56,0-2.83-1.29-2.83-2.88s1.27-2.88,2.83-2.88h8.55c1.56,0,2.83-1.29,2.83-2.88s-1.27-2.88-2.83-2.88h-17.1c-1.56,0-2.83-1.29-2.83-2.88s1.27-2.88,2.83-2.88h25.57c1.56,0,2.83-1.29,2.83-2.88s-1.27-2.88-2.83-2.88h-3.37c1.56,0,2.83-1.29,2.83-2.88s-1.27-2.88-2.83-2.88h-15.9c-1.56,0-2.83-1.29-2.83-2.88s1.27-2.88,2.83-2.88h18c1.56,0,2.83-1.29,2.83-2.88s-1.27-2.88-2.83-2.88h-21.6c-1.56,0-2.83-1.29-2.83-2.88s1.27-2.88,2.83-2.88h17.1c1.56,0,2.83-1.29,2.83-2.88s-1.27-2.88-2.83-2.88h-6.07c-1.56,0-2.83-1.29-2.83-2.88s1.27-2.88,2.83-2.88h-6.38c-1.56,0-2.83-1.29-2.83-2.88s1.27-2.88,2.83-2.88h-4.65c-1.56,0-2.83-1.29-2.83-2.88s1.27-2.88,2.83-2.88h27.45c1.56,0,2.83-1.29,2.83-2.88s-1.27-2.88-2.83-2.88h-16.05c-1.56,0-2.83-1.29-2.83-2.88s1.27-2.88,2.83-2.88h-4.8c-1.56,0-2.83-1.29-2.83-2.88s1.27-2.88,2.83-2.88h15.45c1.56,0,2.83-1.29,2.83-2.88s-1.27-2.88-2.83-2.88h-8.89s4.84,0,4.84,0c1.56,0,2.83-1.29,2.83-2.88s-1.27-2.88-2.83-2.88h-16.2c-1.56,0-2.82-1.29-2.82-2.88s1.27-2.88,2.83-2.88h22.35c1.56,0,2.83-1.29,2.83-2.88s-1.27-2.88-2.83-2.88h-17.4c-1.56,0-2.83-1.29-2.83-2.88s1.27-2.88,2.83-2.88h3.6c-1.56,0-2.83-1.29-2.83-2.88s1.27-2.88,2.83-2.88h-10.35c-1.56,0-2.83-1.29-2.83-2.88S62.53,0,64.09,0h49.72c1.32,0,2.4,1.08,2.4,2.4v116.05c0,1.32,1.08,2.4,2.4,2.4h26.6c1.32,0,2.4,1.08,2.4,2.4v23.96c0,1.32-1.08,2.4-2.4,2.4h-42.12ZM93.14,140.71c0-1.57-1.27-2.83-2.83-2.83s-2.83,1.27-2.83,2.83,1.27,2.83,2.83,2.83,2.83-1.27,2.83-2.83h0ZM88.05,117.73c0-1.57-1.27-2.83-2.83-2.83s-2.83,1.27-2.83,2.83,1.27,2.83,2.83,2.83,2.83-1.27,2.83-2.83h0ZM96.53,106.24c0-1.57-1.27-2.83-2.83-2.83s-2.83,1.27-2.83,2.83,1.27,2.83,2.83,2.83,2.83-1.27,2.83-2.83h0ZM95.23,89.04c0-1.57-1.27-2.83-2.83-2.83s-2.83,1.27-2.83,2.83,1.27,2.83,2.83,2.83,2.83-1.27,2.83-2.83h0ZM95.69,37.35c0-1.57-1.27-2.83-2.83-2.83s-2.83,1.27-2.83,2.83,1.27,2.83,2.83,2.83,2.83-1.27,2.83-2.83h0ZM97.83,20.13c0-1.57-1.27-2.83-2.83-2.83s-2.83,1.27-2.83,2.83,1.27,2.83,2.83,2.83,2.83-1.27,2.83-2.83Z"/><path class="c" d="M57.37,5.77c1.59,0,2.89-1.3,2.89-2.89s-1.3-2.89-2.89-2.89-2.89,1.3-2.89,2.89,1.3,2.89,2.89,2.89Z"/><path class="c" d="M59.2,28.74c1.59,0,2.89-1.3,2.89-2.89s-1.3-2.89-2.89-2.89-2.89,1.3-2.89,2.89,1.3,2.89,2.89,2.89Z"/><circle class="b" cx="64.06" cy="43.08" r="2.89"/><path class="c" d="M57.37,63.2c1.59,0,2.89-1.3,2.89-2.89s-1.3-2.89-2.89-2.89-2.89,1.3-2.89,2.89,1.3,2.89,2.89,2.89Z"/><path class="c" d="M60.96,97.65c1.59,0,2.89-1.3,2.89-2.89s-1.3-2.89-2.89-2.89-2.89,1.3-2.89,2.89,1.3,2.89,2.89,2.89Z"/><path class="c" d="M57.37,149.33c1.59,0,2.89-1.3,2.89-2.89s-1.3-2.89-2.89-2.89-2.89,1.3-2.89,2.89,1.3,2.89,2.89,2.89Z"/><path class="c" d="M168.13,149.6h-.02s-13.63,0-13.63,0c-1.32,0-2.4-1.08-2.4-2.4V31.17c0-1.32-1.08-2.4-2.4-2.4h-26.67c-1.32,0-2.4-1.08-2.4-2.4V2.4C120.6,1.08,121.68,0,123,0h109.32c1.56,0,2.83,1.29,2.83,2.88s-1.27,2.88-2.83,2.88h-19.5c-1.56,0-2.83,1.29-2.83,2.88s1.27,2.88,2.83,2.88h18.15c1.56,0,2.83,1.29,2.83,2.88s-1.27,2.88-2.83,2.88h-8.85c1.56,0,2.83,1.29,2.83,2.88s-1.27,2.88-2.83,2.88h4.35c1.56,0,2.83,1.29,2.83,2.88s-1.27,2.88-2.83,2.88h-33.75c-1.56,0-2.83,1.29-2.83,2.88,0,2.23,1.13,2.88,2.83,2.88h17.1c1.56,0,2.83,1.29,2.83,2.88s-1.27,2.88-2.83,2.88h-25.57c-1.56,0-2.83,1.29-2.83,2.88s1.27,2.88,2.83,2.88h3.37c-1.56,0-2.83,1.29-2.83,2.88s1.27,2.88,2.83,2.88h15.9c1.56,0,2.83,1.29,2.83,2.88s-1.27,2.88-2.83,2.88h-18c-1.56,0-2.83,1.29-2.83,2.88s1.27,2.88,2.83,2.88h21.6c1.56,0,2.83,1.29,2.83,2.88s-1.27,2.88-2.83,2.88h-17.1c-1.56,0-2.83,1.29-2.83,2.88s1.27,2.88,2.83,2.88h6.07c1.56,0,2.83,1.29,2.83,2.88s-1.27,2.88-2.83,2.88h6.38c1.56,0,2.83,1.29,2.83,2.88s-1.27,2.88-2.83,2.88h4.65c1.56,0,2.83,1.29,2.83,2.88s-1.27,2.88-2.83,2.88h-27.45c-1.56,0-2.83,1.29-2.83,2.88s1.27,2.88,2.83,2.88h16.05c1.56,0,2.83,1.29,2.83,2.88s-1.27,2.88-2.83,2.88h4.8c1.56,0,2.83,1.29,2.83,2.88s-1.27,2.88-2.83,2.88h-15.45c-1.56,0-2.83,1.29-2.83,2.88s1.27,2.88,2.83,2.88h5.96s-1.91,0-1.91,0c-1.56,0-2.83,1.29-2.83,2.88s1.27,2.88,2.83,2.88h16.2c1.56,0,2.82,1.29,2.82,2.88s-1.27,2.88-2.83,2.88h-22.35c-1.56,0-2.83,1.29-2.83,2.88s1.27,2.88,2.83,2.88h17.4c1.56,0,2.83,1.29,2.83,2.88s-1.27,2.88-2.83,2.88h-3.6c1.56,0,2.83,1.29,2.83,2.88s-1.27,2.88-2.83,2.88h10.35c1.56,0,2.83,1.29,2.83,2.88s-1.27,2.88-2.83,2.88h-39ZM179.08,129.53c0-1.57-1.27-2.83-2.83-2.83s-2.83,1.27-2.83,2.83,1.27,2.83,2.83,2.83,2.83-1.27,2.83-2.83h0ZM181.21,112.28c0-1.57-1.27-2.83-2.83-2.83s-2.83,1.27-2.83,2.83,1.27,2.83,2.83,2.83,2.83-1.27,2.83-2.83h0ZM175.8,95c0-1.57-1.27-2.83-2.83-2.83s-2.83,1.27-2.83,2.83,1.27,2.83,2.83,2.83,2.83-1.27,2.83-2.83h0ZM181.64,60.6c0-1.57-1.27-2.83-2.83-2.83s-2.83,1.27-2.83,2.83,1.27,2.83,2.83,2.83,2.83-1.27,2.83-2.83h0ZM180.38,43.41c0-1.57-1.27-2.83-2.83-2.83s-2.83,1.27-2.83,2.83,1.27,2.83,2.83,2.83,2.83-1.27,2.83-2.83h0ZM188.88,31.91c0-1.57-1.27-2.83-2.83-2.83s-2.83,1.27-2.83,2.83,1.27,2.83,2.83,2.83,2.83-1.27,2.83-2.83h0ZM209,8.78c0-1.57-1.27-2.83-2.83-2.83s-2.83,1.27-2.83,2.83,1.27,2.83,2.83,2.83,2.83-1.27,2.83-2.83Z"/><path class="c" d="M213.85,149.6c1.59,0,2.89-1.3,2.89-2.89s-1.3-2.89-2.89-2.89-2.89,1.3-2.89,2.89,1.3,2.89,2.89,2.89Z"/><circle class="b" cx="212.01" cy="123.75" r="2.89"/><path class="c" d="M207.15,109.41c1.59,0,2.89-1.3,2.89-2.89s-1.3-2.89-2.89-2.89-2.89,1.3-2.89,2.89,1.3,2.89,2.89,2.89Z"/><path class="c" d="M213.85,92.18c1.59,0,2.89-1.3,2.89-2.89s-1.3-2.89-2.89-2.89-2.89,1.3-2.89,2.89,1.3,2.89,2.89,2.89Z"/><path class="c" d="M210.25,57.73c1.59,0,2.89-1.3,2.89-2.89s-1.3-2.89-2.89-2.89-2.89,1.3-2.89,2.89,1.3,2.89,2.89,2.89Z"/><path class="c" d="M239.05,6.05c1.59,0,2.89-1.3,2.89-2.89s-1.3-2.89-2.89-2.89-2.89,1.3-2.89,2.89,1.3,2.89,2.89,2.89Z"/></svg>