<?xml version="1.0" encoding="UTF-8"?><svg id="a" xmlns="http://www.w3.org/2000/svg" viewBox="0 0 187.45 149.6"><defs><style>.b,.c{fill:#060711;}.c,.d{fill-rule:evenodd;}.d,.e{fill:#5cc6c7;}</style></defs><path class="c" d="M48.6,149.6H9.6c-1.56,0-2.83-1.29-2.83-2.88s1.27-2.88,2.83-2.88h19.5c1.56,0,2.83-1.29,2.83-2.88s-1.27-2.88-2.83-2.88H10.95c-1.56,0-2.83-1.29-2.83-2.88s1.27-2.88,2.83-2.88h8.85c-1.56,0-2.83-1.29-2.83-2.88s1.27-2.88,2.83-2.88h-4.35c-1.56,0-2.83-1.29-2.83-2.88s1.27-2.88,2.83-2.88h8.55c1.56,0,2.83-1.29,2.83-2.88s-1.27-2.88-2.83-2.88H6.9c-1.56,0-2.83-1.29-2.83-2.88s1.27-2.88,2.83-2.88h25.57c1.56,0,2.83-1.29,2.83-2.88s-1.27-2.88-2.83-2.88h-3.37c1.56,0,2.83-1.29,2.83-2.88s-1.27-2.88-2.83-2.88h-15.9c-1.56,0-2.83-1.29-2.83-2.88s1.27-2.88,2.83-2.88h18c1.56,0,2.83-1.29,2.83-2.88s-1.27-2.88-2.83-2.88H9.6c-1.56,0-2.83-1.29-2.83-2.88s1.27-2.88,2.83-2.88h17.1c1.56,0,2.83-1.29,2.83-2.88s-1.27-2.88-2.83-2.88h-6.07c-1.56,0-2.83-1.29-2.83-2.88s1.27-2.88,2.83-2.88h-6.38c-1.56,0-2.83-1.29-2.83-2.88s1.27-2.88,2.83-2.88h-4.65c-1.56,0-2.83-1.29-2.83-2.88s1.27-2.88,2.83-2.88h27.45c1.56,0,2.83-1.29,2.83-2.88s-1.27-2.88-2.83-2.88h-16.05c-1.56,0-2.83-1.29-2.83-2.88s1.27-2.88,2.83-2.88h-4.8c-1.56,0-2.83-1.29-2.83-2.88s1.27-2.88,2.83-2.88h15.45c1.56,0,2.83-1.29,2.83-2.88s-1.27-2.88-2.83-2.88h-8.89s4.84,0,4.84,0c1.56,0,2.83-1.29,2.83-2.88s-1.27-2.88-2.83-2.88H11.4c-1.56,0-2.82-1.29-2.82-2.88s1.27-2.88,2.83-2.88h22.35c1.56,0,2.83-1.29,2.83-2.88s-1.27-2.88-2.83-2.88h-17.4c-1.56,0-2.83-1.29-2.83-2.88s1.27-2.88,2.83-2.88h3.6c-1.56,0-2.83-1.29-2.83-2.88s1.27-2.88,2.83-2.88h-10.35c-1.56,0-2.83-1.29-2.83-2.88S8.04,0,9.6,0h49.72c1.32,0,2.4,1.08,2.4,2.4v116.05c0,1.32,1.08,2.4,2.4,2.4h26.6c1.32,0,2.4,1.08,2.4,2.4v23.96c0,1.32-1.08,2.4-2.4,2.4h-42.12ZM38.66,140.71c0-1.57-1.27-2.83-2.83-2.83s-2.83,1.27-2.83,2.83,1.27,2.83,2.83,2.83,2.83-1.27,2.83-2.83h0ZM33.57,117.73c0-1.57-1.27-2.83-2.83-2.83s-2.83,1.27-2.83,2.83,1.27,2.83,2.83,2.83,2.83-1.27,2.83-2.83h0ZM42.05,106.24c0-1.57-1.27-2.83-2.83-2.83s-2.83,1.27-2.83,2.83,1.27,2.83,2.83,2.83,2.83-1.27,2.83-2.83h0ZM40.74,89.04c0-1.57-1.27-2.83-2.83-2.83s-2.83,1.27-2.83,2.83,1.27,2.83,2.83,2.83,2.83-1.27,2.83-2.83h0ZM41.21,37.35c0-1.57-1.27-2.83-2.83-2.83s-2.83,1.27-2.83,2.83,1.27,2.83,2.83,2.83,2.83-1.27,2.83-2.83h0ZM43.35,20.13c0-1.57-1.27-2.83-2.83-2.83s-2.83,1.27-2.83,2.83,1.27,2.83,2.83,2.83,2.83-1.27,2.83-2.83Z"/><path class="c" d="M2.89,5.77c1.59,0,2.89-1.3,2.89-2.89S4.48,0,2.89,0,0,1.3,0,2.89s1.3,2.89,2.89,2.89Z"/><path class="c" d="M4.72,28.74c1.59,0,2.89-1.3,2.89-2.89s-1.3-2.89-2.89-2.89-2.89,1.3-2.89,2.89,1.3,2.89,2.89,2.89Z"/><circle class="b" cx="9.58" cy="43.08" r="2.89"/><path class="c" d="M2.89,63.2c1.59,0,2.89-1.3,2.89-2.89s-1.3-2.89-2.89-2.89-2.89,1.3-2.89,2.89,1.3,2.89,2.89,2.89Z"/><path class="c" d="M6.48,97.65c1.59,0,2.89-1.3,2.89-2.89s-1.3-2.89-2.89-2.89-2.89,1.3-2.89,2.89,1.3,2.89,2.89,2.89Z"/><path class="c" d="M2.89,149.33c1.59,0,2.89-1.3,2.89-2.89s-1.3-2.89-2.89-2.89-2.89,1.3-2.89,2.89,1.3,2.89,2.89,2.89Z"/><path class="d" d="M113.65,149.6h-.02s-13.63,0-13.63,0c-1.32,0-2.4-1.08-2.4-2.4V31.17c0-1.32-1.08-2.4-2.4-2.4h-26.67c-1.32,0-2.4-1.08-2.4-2.4V2.4C66.12,1.08,67.2,0,68.52,0h109.32c1.56,0,2.83,1.29,2.83,2.88s-1.27,2.88-2.83,2.88h-19.5c-1.56,0-2.83,1.29-2.83,2.88s1.27,2.88,2.83,2.88h18.15c1.56,0,2.83,1.29,2.83,2.88s-1.27,2.88-2.83,2.88h-8.85c1.56,0,2.83,1.29,2.83,2.88s-1.27,2.88-2.83,2.88h4.35c1.56,0,2.83,1.29,2.83,2.88s-1.27,2.88-2.83,2.88h-33.75c-1.56,0-2.83,1.29-2.83,2.88,0,2.23,1.13,2.88,2.83,2.88h17.1c1.56,0,2.83,1.29,2.83,2.88s-1.27,2.88-2.83,2.88h-25.57c-1.56,0-2.83,1.29-2.83,2.88s1.27,2.88,2.83,2.88h3.37c-1.56,0-2.83,1.29-2.83,2.88s1.27,2.88,2.83,2.88h15.9c1.56,0,2.83,1.29,2.83,2.88s-1.27,2.88-2.83,2.88h-18c-1.56,0-2.83,1.29-2.83,2.88s1.27,2.88,2.83,2.88h21.6c1.56,0,2.83,1.29,2.83,2.88s-1.27,2.88-2.83,2.88h-17.1c-1.56,0-2.83,1.29-2.83,2.88s1.27,2.88,2.83,2.88h6.07c1.56,0,2.83,1.29,2.83,2.88s-1.27,2.88-2.83,2.88h6.38c1.56,0,2.83,1.29,2.83,2.88s-1.27,2.88-2.83,2.88h4.65c1.56,0,2.83,1.29,2.83,2.88s-1.27,2.88-2.83,2.88h-27.45c-1.56,0-2.83,1.29-2.83,2.88s1.27,2.88,2.83,2.88h16.05c1.56,0,2.83,1.29,2.83,2.88s-1.27,2.88-2.83,2.88h4.8c1.56,0,2.83,1.29,2.83,2.88s-1.27,2.88-2.83,2.88h-15.45c-1.56,0-2.83,1.29-2.83,2.88s1.27,2.88,2.83,2.88h5.96s-1.91,0-1.91,0c-1.56,0-2.83,1.29-2.83,2.88s1.27,2.88,2.83,2.88h16.2c1.56,0,2.82,1.29,2.82,2.88s-1.27,2.88-2.83,2.88h-22.35c-1.56,0-2.83,1.29-2.83,2.88s1.27,2.88,2.83,2.88h17.4c1.56,0,2.83,1.29,2.83,2.88s-1.27,2.88-2.83,2.88h-3.6c1.56,0,2.83,1.29,2.83,2.88s-1.27,2.88-2.83,2.88h10.35c1.56,0,2.83,1.29,2.83,2.88s-1.27,2.88-2.83,2.88h-39ZM124.6,129.53c0-1.57-1.27-2.83-2.83-2.83s-2.83,1.27-2.83,2.83,1.27,2.83,2.83,2.83,2.83-1.27,2.83-2.83h0ZM126.73,112.28c0-1.57-1.27-2.83-2.83-2.83s-2.83,1.27-2.83,2.83,1.27,2.83,2.83,2.83,2.83-1.27,2.83-2.83h0ZM121.32,95c0-1.57-1.27-2.83-2.83-2.83s-2.83,1.27-2.83,2.83,1.27,2.83,2.83,2.83,2.83-1.27,2.83-2.83h0ZM127.16,60.6c0-1.57-1.27-2.83-2.83-2.83s-2.83,1.27-2.83,2.83,1.27,2.83,2.83,2.83,2.83-1.27,2.83-2.83h0ZM125.9,43.41c0-1.57-1.27-2.83-2.83-2.83s-2.83,1.27-2.83,2.83,1.27,2.83,2.83,2.83,2.83-1.27,2.83-2.83h0ZM134.4,31.91c0-1.57-1.27-2.83-2.83-2.83s-2.83,1.27-2.83,2.83,1.27,2.83,2.83,2.83,2.83-1.27,2.83-2.83h0ZM154.52,8.78c0-1.57-1.27-2.83-2.83-2.83s-2.83,1.27-2.83,2.83,1.27,2.83,2.83,2.83,2.83-1.27,2.83-2.83Z"/><path class="d" d="M159.36,149.6c1.59,0,2.89-1.3,2.89-2.89s-1.3-2.89-2.89-2.89-2.89,1.3-2.89,2.89,1.3,2.89,2.89,2.89Z"/><circle class="e" cx="157.53" cy="123.75" r="2.89"/><path class="d" d="M152.67,109.41c1.59,0,2.89-1.3,2.89-2.89s-1.3-2.89-2.89-2.89-2.89,1.3-2.89,2.89,1.3,2.89,2.89,2.89Z"/><path class="d" d="M159.36,92.18c1.59,0,2.89-1.3,2.89-2.89s-1.3-2.89-2.89-2.89-2.89,1.3-2.89,2.89,1.3,2.89,2.89,2.89Z"/><path class="d" d="M155.77,57.73c1.59,0,2.89-1.3,2.89-2.89s-1.3-2.89-2.89-2.89-2.89,1.3-2.89,2.89,1.3,2.89,2.89,2.89Z"/><path class="d" d="M184.57,6.05c1.59,0,2.89-1.3,2.89-2.89s-1.3-2.89-2.89-2.89-2.89,1.3-2.89,2.89,1.3,2.89,2.89,2.89Z"/></svg>